PathFileType	4	(X/Y/Z)	Walk5.trc
DataRate	CameraRate	NumFrames	NumMarkers	Units	OrigDataRate	OrigDataStartFrame	OrigNumFrames
200.000000	200.000000	9	58	mm	200.000000	613	695
Frame#	Times		LToe		RBHD		LWRR		LElbow		LACR1		C7		RMT5		RToe		RTB2		LCAR		RTB3		LWRU		RCAR		RMT1		LElbowM		RFA1		RMMAL		LTH3		LASI		RCAL		RWRU		RLFC		LTH4		RElbow		LTB2		LMMAL		LPSI		RASI		RElbowM		LCAL		RPSI		LLFC		RTH3		LBHD		T10		LTH2		RFHD		RBack		LMT5		LUA1		RUA1		LFHD		RLMAL		RMFC		LLMAL		LMFC		RACR1		LTB1		RWRR		LTB4		LTB3		RTH4		RTB1		LMT1		RTH1		RTB4		RTH2		LTH1
			X1	Y1	Z1	X2	Y2	Z2	X3	Y3	Z3	X4	Y4	Z4	X5	Y5	Z5	X6	Y6	Z6	X7	Y7	Z7	X8	Y8	Z8	X9	Y9	Z9	X10	Y10	Z10	X11	Y11	Z11	X12	Y12	Z12	X13	Y13	Z13	X14	Y14	Z14	X15	Y15	Z15	X16	Y16	Z16	X17	Y17	Z17	X18	Y18	Z18	X19	Y19	Z19	X20	Y20	Z20	X21	Y21	Z21	X22	Y22	Z22	X23	Y23	Z23	X24	Y24	Z24	X25	Y25	Z25	X26	Y26	Z26	X27	Y27	Z27	X28	Y28	Z28	X29	Y29	Z29	X30	Y30	Z30	X31	Y31	Z31	X32	Y32	Z32	X33	Y33	Z33	X34	Y34	Z34	X35	Y35	Z35	X36	Y36	Z36	X37	Y37	Z37	X38	Y38	Z38	X39	Y39	Z39	X40	Y40	Z40	X41	Y41	Z41	X42	Y42	Z42	X43	Y43	Z43	X44	Y44	Z44	X45	Y45	Z45	X46	Y46	Z46	X47	Y47	Z47	X48	Y48	Z48	X49	Y49	Z49	X50	Y50	Z50	X51	Y51	Z51	X52	Y52	Z52	X53	Y53	Z53	X54	Y54	Z54	X55	Y55	Z55	X56	Y56	Z56	X57	Y57	Z57	X58	Y58	Z58

613	3.065	903.36	62.475	-61.865	550.99	1593.8	-81.33	468.5	800.61	-291.38	476.96	1081.6	-288.14	611.3	1399.8	-181.74	518.37	1467.8	-15.169	273.65	43.417	129.74	354.92	22.239	91.802	398.98	290.76	125.07	457.67	942.97	-295.11	337.57	224.08	51.823	531.4	765.13	-272.03	659.14	793.71	270.03	307.41	31.186	55.237	432.32	1083.5	-215.2	558.32	920.92	278.19	237.09	141.35	29.377	663.75	581.11	-139.66	617.53	1014.4	-157.1	149.76	156.79	47.826	587.86	804.35	245.71	517.37	492.7	129.37	638.21	670.6	-161.56	512.27	1076.4	280.42	729.22	309.39	-119.87	735.99	72.76	-19.245	418.04	1030.4	-52.223	587.58	980.71	147.85	474	1078	202.77	651.48	32.529	-49.453	408.93	1033.2	16.754	667.56	519.8	-133.22	523.5	540.37	134.3	549.77	1590.5	55.47	434.63	1214.7	-11.775	692.41	692.83	-117.13	726.86	1633.5	-48.46	494.19	1359	140.3	828.5	25.683	-119.73	546.6	1205.2	-254.54	587.78	1234	230.94	725.78	1633.5	26.71	213.06	155.53	107.45	483.26	466.68	6.943	712.63	59.863	-99.916	653.35	494.06	-4.7905	625.31	1410.3	141.84	732.63	403.04	-49.215	660.24	841.19	222.14	735.1	310.19	-47.922	739.29	217.77	-48.883	589.84	637.27	110.16	473.4	351.53	49.934	865.79	34.056	-44.416	526.78	728.93	163.8	402.52	284.81	48.758	528.59	633.62	152.14	611.74	758.23	-178.78
614	3.07	904.38	61.39	-61.834	556.12	1594.3	-82.201	476.52	800.83	-292	483.68	1081.9	-288.84	616.75	1400.5	-182.5	523.44	1468.4	-16.116	277.6	46.231	129.61	356.85	22.959	91.856	407.35	293	125.67	465.01	943.11	-295.73	345.29	226.72	52.605	539.59	765.62	-272.69	662.19	793.85	269.2	309.87	32.414	55.214	439.03	1083.7	-215.9	561.98	921.54	277.18	243.67	145.5	30.011	668.87	581.78	-140.07	622.83	1015.2	-157.93	156.65	163.17	48.339	591.03	804.85	244.68	528	492.83	129.81	643.36	671.25	-162.12	516.54	1077.2	279.32	731.9	309.1	-120.21	736.3	72.666	-19.239	423.19	1030.8	-53.043	592.9	981.45	146.74	478.35	1079.1	201.6	651.59	32.67	-49.555	414.03	1033.5	15.931	672.07	520.08	-133.73	533.62	540.37	134.44	554.93	1591.1	54.608	439.71	1215.2	-12.721	697.54	693.55	-117.7	731.99	1634	-49.385	499.19	1359.7	139.42	828.77	25.307	-120.06	552.93	1205.6	-255.17	592.53	1234.6	229.88	730.95	1633.9	25.772	219.69	160.24	108.06	494.5	466.36	6.9349	712.89	59.784	-99.942	658.06	494.71	-5.3188	630.31	1410.8	140.86	736.2	402.85	-49.689	663.64	841.35	221.37	737.77	309.99	-48.265	741.04	217.51	-49.054	598.7	638.02	109.87	482.99	352.27	50.547	866.14	33.609	-44.343	534.71	729.13	163.16	411.13	286.51	49.445	537.55	633.77	151.96	616.91	758.84	-179.51
615	3.075	905.4	60.331	-61.797	561.18	1594.9	-83.049	484.64	801.04	-292.6	490.4	1082.1	-289.57	622.14	1401.3	-183.26	528.44	1469	-17.059	282.1	49.151	129.54	359.39	23.872	91.903	415.97	295.22	126.21	472.38	943.22	-296.35	353.26	229.35	53.347	547.9	766.14	-273.32	665.22	794.01	268.37	312.86	33.861	55.189	445.73	1083.9	-216.66	565.59	922.17	276.19	250.56	149.56	30.632	673.71	582.34	-140.54	628.09	1016	-158.76	163.85	169.31	48.919	594.17	805.36	243.66	538.66	493.05	130.25	648.31	671.81	-162.72	520.74	1078	278.26	734.52	308.82	-120.5	736.58	72.582	-19.202	428.31	1031.2	-53.861	598.21	982.16	145.68	482.63	1080.1	200.48	651.69	32.795	-49.641	419.12	1033.7	15.102	676.36	520.3	-134.22	543.77	540.43	134.58	560.02	1591.7	53.77	444.76	1215.7	-13.667	702.57	694.09	-118.39	737.06	1634.4	-50.282	504.12	1360.3	138.54	829.04	25.005	-120.36	559.22	1206	-255.82	597.2	1235.3	228.85	736.06	1634.4	24.862	226.67	164.81	108.69	505.84	466.18	6.9094	713.12	59.726	-99.943	662.79	495.31	-5.8443	635.24	1411.3	139.9	739.65	402.64	-50.094	667	841.53	220.61	740.34	309.78	-48.554	742.73	217.25	-49.184	607.61	638.82	109.63	492.7	353.08	51.108	866.49	33.244	-44.221	542.7	729.36	162.54	419.93	288.25	50.084	546.55	633.96	151.78	622.01	759.41	-180.26
616	3.08	906.4	59.283	-61.759	566.18	1595.5	-83.875	492.84	801.22	-293.18	497.12	1082.3	-290.32	627.49	1402	-184	533.37	1469.5	-17.999	287.15	52.147	129.52	362.61	24.997	91.937	424.81	297.39	126.69	479.79	943.3	-296.98	361.45	231.95	54.035	556.3	766.67	-273.94	668.24	794.17	267.54	316.44	35.529	55.166	452.4	1084	-217.46	569.17	922.78	275.22	257.72	153.52	31.235	678.25	582.76	-141.09	633.29	1016.7	-159.57	171.33	175.15	49.557	597.3	805.88	242.67	549.32	493.34	130.68	653.07	672.27	-163.35	524.89	1078.8	277.23	737.08	308.52	-120.75	736.83	72.505	-19.137	433.41	1031.5	-54.673	603.52	982.83	144.69	486.83	1081.1	199.41	651.77	32.907	-49.71	424.2	1033.9	14.271	680.45	520.44	-134.69	553.9	540.56	134.71	565.06	1592.2	52.954	449.79	1216.2	-14.611	707.49	694.45	-119.2	742.07	1634.8	-51.148	508.98	1360.9	137.64	829.31	24.762	-120.62	565.49	1206.4	-256.47	601.79	1235.9	227.86	741.11	1634.8	23.983	233.99	169.24	109.33	517.24	466.14	6.8637	713.34	59.684	-99.923	667.58	495.84	-6.3757	640.09	1411.9	138.98	742.98	402.41	-50.437	670.32	841.73	219.86	742.81	309.56	-48.793	744.35	216.98	-49.278	616.55	639.66	109.42	502.51	353.98	51.601	866.83	32.946	-44.053	550.73	729.63	161.92	428.88	290	50.664	555.56	634.21	151.59	627.02	759.91	-181.02
617	3.085	907.39	58.237	-61.723	571.12	1596	-84.68	501.12	801.37	-293.74	503.84	1082.5	-291.1	632.79	1402.7	-184.74	538.24	1470	-18.935	292.76	55.191	129.55	366.55	26.346	91.951	433.85	299.52	127.11	487.23	943.34	-297.6	369.83	234.53	54.654	564.81	767.2	-274.54	671.25	794.34	266.71	320.67	37.406	55.148	459.04	1084.1	-218.31	572.7	923.37	274.27	265.13	157.37	31.813	682.47	583.04	-141.7	638.43	1017.4	-160.37	179.06	180.65	50.244	600.42	806.39	241.71	559.93	493.71	131.07	657.62	672.63	-164.01	528.97	1079.6	276.24	739.6	308.22	-120.95	737.05	72.433	-19.049	438.49	1031.9	-55.479	608.82	983.45	143.75	490.96	1082.1	198.4	651.83	33.008	-49.766	429.26	1034	13.44	684.36	520.52	-135.13	563.99	540.78	134.81	570.03	1592.8	52.16	454.78	1216.6	-15.553	712.3	694.61	-120.13	747.02	1635.3	-51.984	513.76	1361.4	136.73	829.58	24.566	-120.86	571.71	1206.8	-257.15	606.29	1236.5	226.92	746.1	1635.3	23.136	241.63	173.48	109.97	528.63	466.26	6.7946	713.54	59.655	-99.884	672.45	496.28	-6.9249	644.86	1412.4	138.08	746.2	402.16	-50.726	673.61	841.94	219.11	745.21	309.32	-48.99	745.93	216.72	-49.345	625.48	640.56	109.24	512.37	354.96	52.014	867.15	32.704	-43.844	558.77	729.95	161.31	437.96	291.78	51.173	564.54	634.52	151.4	631.93	760.33	-181.78
618	3.09	908.36	57.186	-61.692	575.99	1596.6	-85.465	509.47	801.49	-294.29	510.55	1082.6	-291.91	638.04	1403.4	-185.47	543.04	1470.5	-19.867	298.95	58.253	129.63	371.25	27.919	91.943	443.06	301.59	127.44	494.7	943.34	-298.24	378.38	237.07	55.195	573.41	767.75	-275.12	674.26	794.51	265.88	325.58	39.472	55.134	465.65	1084.2	-219.21	576.19	923.94	273.35	272.8	161.07	32.36	686.4	583.17	-142.36	643.52	1018	-161.16	187.01	185.79	50.967	603.52	806.9	240.77	570.46	494.16	131.41	661.95	672.86	-164.69	532.99	1080.3	275.28	742.05	307.92	-121.13	737.26	72.363	-18.942	443.55	1032.2	-56.277	614.1	984.03	142.89	495.03	1083	197.43	651.89	33.1	-49.808	434.31	1034.2	12.612	688.11	520.54	-135.55	574.01	541.08	134.89	574.93	1593.3	51.385	459.75	1217.1	-16.489	716.99	694.58	-121.18	751.9	1635.8	-52.786	518.46	1362	135.8	829.86	24.407	-121.07	577.9	1207.1	-257.84	610.7	1237	226.02	751.02	1635.7	22.322	249.57	177.52	110.59	539.96	466.57	6.6988	713.74	59.635	-99.828	677.43	496.62	-7.5067	649.56	1412.9	137.21	749.32	401.88	-50.976	676.88	842.15	218.37	747.54	309.06	-49.152	747.46	216.44	-49.391	634.39	641.52	109.09	522.27	356.03	52.337	867.48	32.505	-43.6	566.8	730.31	160.71	447.14	293.58	51.606	573.48	634.89	151.18	636.74	760.67	-182.54
619	3.095	909.32	56.125	-61.67	580.81	1597.2	-86.231	517.9	801.57	-294.81	517.25	1082.6	-292.74	643.23	1404	-186.2	547.79	1470.9	-20.794	305.7	61.305	129.74	376.72	29.707	91.913	452.43	303.6	127.69	502.19	943.29	-298.87	387.09	239.56	55.65	582.1	768.29	-275.68	677.28	794.67	265.06	331.17	41.696	55.126	472.24	1084.2	-220.15	579.64	924.49	272.46	280.7	164.62	32.871	690.06	583.17	-143.06	648.57	1018.6	-161.93	195.18	190.52	51.708	606.62	807.4	239.86	580.9	494.71	131.69	666.08	672.99	-165.37	536.95	1081	274.35	744.44	307.6	-121.28	737.45	72.297	-18.819	448.59	1032.6	-57.066	619.36	984.55	142.1	499.03	1083.8	196.51	651.93	33.184	-49.84	439.35	1034.3	11.79	691.73	520.51	-135.94	583.94	541.48	134.92	579.77	1593.8	50.629	464.7	1217.5	-17.417	721.58	694.36	-122.33	756.72	1636.2	-53.556	523.08	1362.5	134.85	830.13	24.275	-121.27	584.05	1207.4	-258.55	615.01	1237.6	225.17	755.87	1636.1	21.54	257.78	181.34	111.2	551.19	467.08	6.5736	713.92	59.623	-99.759	682.57	496.83	-8.1381	654.19	1413.3	136.38	752.36	401.58	-51.199	680.13	842.38	217.63	749.81	308.79	-49.289	748.95	216.17	-49.423	643.26	642.54	108.96	532.17	357.18	52.562	867.8	32.341	-43.328	574.78	730.73	160.14	456.4	295.38	51.959	582.35	635.33	150.93	641.44	760.92	-183.3
620	3.1	910.26	55.049	-61.66	585.57	1597.8	-86.979	526.4	801.6	-295.32	523.94	1082.7	-293.59	648.36	1404.7	-186.92	552.49	1471.4	-21.715	313	64.316	129.88	382.94	31.687	91.862	461.93	305.54	127.87	509.71	943.19	-299.51	395.95	241.99	56.018	590.86	768.83	-276.22	680.3	794.83	264.25	337.45	44.036	55.12	478.8	1084.1	-221.12	583.05	925	271.58	288.84	167.99	33.341	693.47	583.04	-143.78	653.56	1019.1	-162.69	203.54	194.83	52.452	609.72	807.87	238.98	591.23	495.37	131.91	670.03	673	-166.05	540.86	1081.7	273.44	746.77	307.28	-121.41	737.63	72.232	-18.683	453.62	1032.9	-57.845	624.59	985.02	141.39	502.98	1084.6	195.62	651.97	33.261	-49.862	444.38	1034.4	10.978	695.24	520.44	-136.31	593.76	541.98	134.91	584.54	1594.3	49.89	469.61	1217.9	-18.336	726.05	693.99	-123.56	761.49	1636.7	-54.292	527.63	1362.9	133.88	830.41	24.162	-121.45	590.15	1207.7	-259.28	619.24	1238.1	224.36	760.66	1636.6	20.792	266.25	184.92	111.79	562.27	467.77	6.4177	714.09	59.616	-99.678	687.93	496.91	-8.8372	658.74	1413.8	135.58	755.34	401.26	-51.406	683.37	842.61	216.89	752.03	308.5	-49.411	750.42	215.89	-49.447	652.08	643.64	108.85	542.08	358.4	52.687	868.11	32.201	-43.033	582.68	731.21	159.59	465.74	297.19	52.232	591.14	635.85	150.65	646.02	761.09	-184.05
621	3.105	911.18	53.96	-61.662	590.28	1598.3	-87.708	534.96	801.59	-295.81	530.62	1082.6	-294.46	653.44	1405.3	-187.65	557.14	1471.8	-22.629	320.84	67.259	130.04	389.9	33.83	91.795	471.55	307.42	127.97	517.25	943.04	-300.16	404.95	244.35	56.299	599.7	769.36	-276.74	683.33	794.98	263.45	344.41	46.449	55.116	485.34	1084	-222.12	586.42	925.49	270.73	297.21	171.15	33.766	696.68	582.81	-144.5	658.51	1019.7	-163.43	212.1	198.72	53.181	612.82	808.33	238.13	601.44	496.12	132.06	673.81	672.93	-166.71	544.71	1082.3	272.55	749.02	306.95	-121.54	737.79	72.169	-18.538	458.62	1033.2	-58.612	629.79	985.45	140.74	506.88	1085.4	194.76	652.01	33.333	-49.875	449.4	1034.5	10.179	698.67	520.34	-136.66	603.48	542.58	134.85	589.24	1594.8	49.167	474.5	1218.2	-19.244	730.42	693.48	-124.85	766.19	1637.2	-54.995	532.1	1363.4	132.89	830.67	24.063	-121.62	596.21	1208	-260.03	623.38	1238.6	223.6	765.38	1637	20.077	274.98	188.24	112.34	573.18	468.66	6.2308	714.26	59.613	-99.589	693.54	496.84	-9.6214	663.22	1414.3	134.82	758.26	400.92	-51.607	686.61	842.84	216.16	754.21	308.2	-49.525	751.86	215.6	-49.467	660.83	644.83	108.76	551.98	359.7	52.714	868.42	32.078	-42.725	590.47	731.75	159.07	475.15	299	52.428	599.83	636.44	150.33	650.51	761.17	-184.79
